# xmcd
#
# Track frame offsets:
#	150
#	29124
#	46340
#	64072
#	84123
#	112810
#	138314
#	164055
#	183962
#	201803
#	225582
#	242279
#	272525
#	304182
#
# Disc length: 4457 seconds
#
# Revision: 1
# Processed by: cddbd v1.4PL0 Copyright (c) Steve Scherf et al.
# Submitted via: audiograbber 1.80
#
DISCID=b311670e
DTITLE=Vargas Blues Band - Madrid Chicago Live
DYEAR=1900
DGENRE=
TTITLE0=Back Alley Blues
TTITLE1=Born to be Wild
TTITLE2=Texas-Tango
TTITLE3=Illegally
TTITLE4=Chill Out (Sácalo)
TTITLE5=Amapola Negra
TTITLE6=Del Sur
TTITLE7=Manish Boy
TTITLE8=Hard Time Blues
TTITLE9=Madrid-Memphis
TTITLE10=Body Shock
TTITLE11=Blues Latino
TTITLE12=2001 Blues
TTITLE13=Buenos Aires Blues
EXTD=
EXTT0=
EXTT1=
EXTT2=
EXTT3=
EXTT4=
EXTT5=
EXTT6=
EXTT7=
EXTT8=
EXTT9=
EXTT10=
EXTT11=
EXTT12=
EXTT13=
PLAYORDER=
